# xmcd
#
# Track frame offsets:
# 150
# 32507
# 50825
# 68632
# 87560
# 102327
# 119210
# 141272
# 157872
# 172177
# 189247
# 210695
# 227697
# 246647
# 262502
# 278390
# 297830
# 311650
#
# Disc length: 4371 seconds
#
#
# Revision: 0
# Processed by: cddbd v1.5.1PL0 Copyright (c) Steve Scherf et al.
# Submitted via: FreeRIP 2.70 
#
DISCID=07111112
DTITLE=mix - Rhythms and Blue of 70's
DYEAR=1900
DGENRE=Blues
TTITLE0=Blue Magic - Just Don't Want To Be Lonely
TTITLE1=Spinneis - Just As Long As We Have Love
TTITLE2=Fith Dimension - Somebody Warm Like Me
TTITLE3=Blue Magic - Side Show
TTITLE4=Stylistics - Betcha By Golly Wow
TTITLE5=Spinners - I Don't Want to Lose You
TTITLE6=The Miracles - City Of Angels
TTITLE7=Tower of Power - So Very Gard To Go
TTITLE8=Marilyn Mocco and Billy Davies Jr - No Love In The Room
TTITLE9=Friends Of Distinction - Great Day
TTITLE10=Billy Paul - Mrs Jones
TTITLE11=Major Harris - Love Won't Let Me Wait
TTITLE12=Larsen Feiton Band - Who'll Be The Fool Tonight
TTITLE13=Stevei Wonder - Too Shy To Say
TTITLE14=Free Movement - The Harder I Try
TTITLE15=Friends Of Distinction - The Way We Planned It
TTITLE16=Intruders - Together
TTITLE17=Free Movement - I Found Somebody New
EXTD=
EXTT0=
EXTT1=
EXTT2=
EXTT3=
EXTT4=
EXTT5=
EXTT6=
EXTT7=
EXTT8=
EXTT9=
EXTT10=
EXTT11=
EXTT12=
EXTT13=
EXTT14=
EXTT15=
EXTT16=
EXTT17=
PLAYORDER=
